<svg width="160" height="24" viewBox="0 0 160 24" fill="none" xmlns="http://www.w3.org/2000/svg">
<g clip-path="url(#clip0_16_362)">
<path d="M12.7681 17.7323L19.1521 21.4138L25.5361 17.7323L19.1521 14.0509L12.7681 17.7323Z" fill="white"/>
<path d="M6.38403 14.0509L12.7681 17.7323L19.1521 14.0509L12.7681 10.3694L6.38403 14.0509Z" fill="white"/>
<path d="M19.1521 14.0509L25.5361 17.7323L31.9202 14.0509L25.5361 10.3694L19.1521 14.0509Z" fill="white"/>
<path d="M6.38403 6.66665L12.7681 10.3694L19.1521 6.66665L12.7681 2.98518L6.38403 6.66665Z" fill="white"/>
<path d="M25.5361 10.3694L31.9202 14.0508L38.3042 10.3694L31.9202 6.66665L25.5361 10.3694Z" fill="white"/>
<path d="M0 10.3694L6.38404 14.0508L12.7681 10.3694L6.38404 6.66665L0 10.3694Z" fill="white"/>
<g filter="url(#filter0_d_16_362)">
<path d="M23.5411 6.26765L29.9252 9.97039L36.3092 6.26765L29.9252 2.58618L23.5411 6.26765Z" fill="#FCBE7C"/>
</g>
<path d="M53.1152 0.827927H66.7132V6.25436H59.1162V9.3187H65.9472V14.5536H59.1162V17.7456H66.7771V23.1721H53.1152V0.827927ZM74.8601 0.827927V23.1721H69.0187V0.827927H74.8601ZM93.0219 19.3097C92.3619 20.6929 91.3724 21.7569 90.0533 22.5017C88.7549 23.2466 87.2016 23.6189 85.3929 23.6189C84.1161 23.6189 82.9455 23.4168 81.8817 23.0125C80.8176 22.6082 79.9027 22.0336 79.1366 21.2888C78.3705 20.544 77.7744 19.6608 77.3491 18.6394C76.9233 17.5967 76.7106 16.4476 76.7106 15.192C76.7106 13.979 76.9233 12.8618 77.3491 11.8404C77.7959 10.8189 78.3916 9.93584 79.1366 9.19102C79.9027 8.42493 80.7964 7.8291 81.8179 7.40349C82.8605 6.97787 83.9885 6.76508 85.2014 6.76508C86.4355 6.76508 87.5635 6.97787 88.585 7.40349C89.6276 7.8078 90.5106 8.39301 91.2343 9.1591C91.9577 9.90392 92.5215 10.8189 92.9261 11.9042C93.3303 12.9683 93.5326 14.1599 93.5326 15.4793C93.5326 15.7347 93.5218 15.9581 93.5007 16.1496C93.5007 16.3411 93.4899 16.5114 93.4688 16.6603H82.4244C82.4882 17.3413 82.7966 17.8946 83.35 18.3202C83.9246 18.7458 84.5949 18.9586 85.361 18.9586C85.9994 18.9586 86.5205 18.8522 86.9251 18.6394C87.3504 18.4053 87.7123 18.0436 88.0104 17.5541L93.0219 19.3097ZM87.8827 13.3087C87.8189 12.6916 87.5316 12.1915 87.0209 11.8085C86.5313 11.4254 85.914 11.2339 85.1695 11.2339C84.4246 11.2339 83.7969 11.4361 83.2862 11.8404C82.7966 12.2234 82.5201 12.7129 82.4563 13.3087H87.8827ZM92.962 7.21197H99.1226L102.219 16.0858L105.315 7.21197H111.284L104.868 23.1721H99.378L92.962 7.21197ZM128.298 7.21197V23.1721H122.553V21.4484C121.319 22.8741 119.691 23.587 117.669 23.587C116.648 23.587 115.69 23.3742 114.796 22.9486C113.902 22.523 113.126 21.9378 112.466 21.193C111.828 20.4269 111.317 19.5332 110.934 18.5117C110.572 17.4903 110.391 16.3837 110.391 15.192C110.391 14.0216 110.572 12.9257 110.934 11.9042C111.317 10.8615 111.828 9.96776 112.466 9.22294C113.126 8.47812 113.902 7.89294 114.796 7.46733C115.69 7.02044 116.648 6.797 117.669 6.797C118.69 6.797 119.605 6.97787 120.414 7.33965C121.244 7.68012 121.957 8.21215 122.553 8.93566V7.21197H128.298ZM116.201 15.192C116.201 15.6389 116.286 16.0539 116.456 16.4369C116.626 16.8199 116.86 17.1604 117.158 17.4584C117.456 17.735 117.797 17.9584 118.18 18.1287C118.584 18.2989 119.01 18.384 119.457 18.384C119.903 18.384 120.318 18.2989 120.701 18.1287C121.106 17.9584 121.457 17.735 121.755 17.4584C122.053 17.1604 122.287 16.8199 122.457 16.4369C122.627 16.0539 122.712 15.6389 122.712 15.192C122.712 14.7451 122.627 14.3302 122.457 13.9471C122.287 13.5641 122.053 13.2342 121.755 12.9576C121.457 12.6597 121.106 12.4256 120.701 12.2554C120.318 12.0851 119.903 12 119.457 12C119.01 12 118.584 12.0851 118.18 12.2554C117.797 12.4256 117.456 12.6597 117.158 12.9576C116.86 13.2342 116.626 13.5641 116.456 13.9471C116.286 14.3302 116.201 14.7451 116.201 15.192ZM137.86 2.64738V7.21197H141.595V11.9042H137.86V16.2135C137.86 17.0221 138.031 17.5967 138.371 17.9372C138.712 18.2564 139.212 18.416 139.871 18.416C140.169 18.416 140.467 18.3734 140.765 18.2883C141.063 18.2032 141.339 18.0861 141.595 17.9372V22.8529C141.212 23.0444 140.712 23.2146 140.095 23.3636C139.478 23.5125 138.722 23.587 137.828 23.587C136.041 23.587 134.626 23.0657 133.583 22.0229C132.561 20.9802 132.051 19.5012 132.051 17.586V11.9042H129.912V7.21197H132.051V2.64738H137.86ZM158.655 19.3097C157.995 20.6929 157.006 21.7569 155.686 22.5017C154.388 23.2466 152.835 23.6189 151.026 23.6189C149.749 23.6189 148.579 23.4168 147.515 23.0125C146.451 22.6082 145.536 22.0336 144.77 21.2888C144.004 20.544 143.408 19.6608 142.982 18.6394C142.557 17.5967 142.344 16.4476 142.344 15.192C142.344 13.979 142.557 12.8618 142.982 11.8404C143.429 10.8189 144.025 9.93584 144.77 9.19102C145.536 8.42493 146.43 7.8291 147.451 7.40349C148.494 6.97787 149.622 6.76508 150.835 6.76508C152.069 6.76508 153.197 6.97787 154.218 7.40349C155.261 7.8078 156.144 8.39301 156.867 9.1591C157.591 9.90392 158.155 10.8189 158.559 11.9042C158.964 12.9683 159.166 14.1599 159.166 15.4793C159.166 15.7347 159.155 15.9581 159.134 16.1496C159.134 16.3411 159.123 16.5114 159.102 16.6603H148.057C148.121 17.3413 148.43 17.8946 148.983 18.3202C149.558 18.7458 150.228 18.9586 150.994 18.9586C151.633 18.9586 152.154 18.8522 152.558 18.6394C152.984 18.4053 153.346 18.0436 153.644 17.5541L158.655 19.3097ZM153.516 13.3087C153.452 12.6916 153.165 12.1915 152.654 11.8085C152.165 11.4254 151.548 11.2339 150.803 11.2339C150.058 11.2339 149.43 11.4361 148.919 11.8404C148.43 12.2234 148.153 12.7129 148.089 13.3087H153.516Z" fill="white"/>
</g>
<defs>
<filter id="filter0_d_16_362" x="17.5411" y="-1.81781" width="24.7681" height="19.3842" filterUnits="userSpaceOnUse" color-interpolation-filters="sRGB">
<feFlood flood-opacity="0" result="BackgroundImageFix"/>
<feColorMatrix in="SourceAlpha" type="matrix" values="0 0 0 0 0 0 0 0 0 0 0 0 0 0 0 0 0 0 127 0" result="hardAlpha"/>
<feOffset dy="1.59601"/>
<feGaussianBlur stdDeviation="3"/>
<feComposite in2="hardAlpha" operator="out"/>
<feColorMatrix type="matrix" values="0 0 0 0 0 0 0 0 0 0 0 0 0 0 0 0 0 0 0.4 0"/>
<feBlend mode="normal" in2="BackgroundImageFix" result="effect1_dropShadow_16_362"/>
<feBlend mode="normal" in="SourceGraphic" in2="effect1_dropShadow_16_362" result="shape"/>
</filter>
<clipPath id="clip0_16_362">
<rect width="160" height="23.9401" fill="white" transform="translate(0 0.0299225)"/>
</clipPath>
</defs>
</svg>
